<svg width="32" height="32" viewBox="0 0 32 32" fill="none" xmlns="http://www.w3.org/2000/svg">
<g id="chat">
<g id="Vector">
<mask id="path-1-outside-1_1029_1562" maskUnits="userSpaceOnUse" x="0.555664" y="0.555176" width="31" height="31" fill="black">
<rect fill="white" x="0.555664" y="0.555176" width="31" height="31"/>
<path fill-rule="evenodd" clip-rule="evenodd" d="M23.1112 26.6663C21.2374 27.7944 18.3486 28.4278 16.0001 28.4278C9.12722 28.4278 3.55566 22.86 3.55566 15.9916C3.55566 9.12318 9.12722 3.55518 16.0001 3.55518C22.873 3.55518 28.4446 9.12318 28.4446 15.9916C28.4446 18.4557 27.9023 21.1795 26.6668 23.1107"/>
<path fill-rule="evenodd" clip-rule="evenodd" d="M23.1112 26.6663L28.4446 28.4278L26.6668 23.1107"/>
</mask>
<path d="M23.1112 26.6663L24.0521 23.8176L22.744 23.3856L21.5638 24.0962L23.1112 26.6663ZM26.6668 23.1107L24.1397 21.4939L23.3668 22.7019L23.8216 24.062L26.6668 23.1107ZM28.4446 28.4278L27.5037 31.2764C28.5817 31.6325 29.7684 31.3495 30.5698 30.5452C31.3711 29.7409 31.6497 28.5532 31.2897 27.4765L28.4446 28.4278ZM21.5638 24.0962C20.2766 24.8711 17.962 25.4278 16.0001 25.4278V31.4278C18.7351 31.4278 22.1982 30.7177 24.6586 29.2364L21.5638 24.0962ZM16.0001 25.4278C10.7822 25.4278 6.55566 21.2013 6.55566 15.9916H0.555664C0.555664 24.5187 7.47225 31.4278 16.0001 31.4278V25.4278ZM6.55566 15.9916C6.55566 10.7819 10.7823 6.55518 16.0001 6.55518V0.555176C7.47218 0.555176 0.555664 7.46451 0.555664 15.9916H6.55566ZM16.0001 6.55518C21.218 6.55518 25.4446 10.7819 25.4446 15.9916H31.4446C31.4446 7.46451 24.528 0.555176 16.0001 0.555176V6.55518ZM25.4446 15.9916C25.4446 18.124 24.9581 20.2149 24.1397 21.4939L29.1938 24.7275C30.8466 22.1442 31.4446 18.7875 31.4446 15.9916H25.4446ZM22.1704 29.5149L27.5037 31.2764L29.3854 25.5791L24.0521 23.8176L22.1704 29.5149ZM31.2897 27.4765L29.512 22.1594L23.8216 24.062L25.5994 29.3791L31.2897 27.4765Z" fill="white" mask="url(#path-1-outside-1_1029_1562)"/>
</g>
</g>
</svg>
