<svg width="53" height="38" viewBox="0 0 53 38" fill="none" xmlns="http://www.w3.org/2000/svg">
<path id="Vector" opacity="0.6" d="M9 36V34.2996C9 29.6052 12.9175 25.8 17.75 25.8C22.5825 25.8 26.5 29.6044 26.5 34.2988V36M31.75 12.2H42.25M31.75 22.4H42.25M17.75 8.8C14.8505 8.8 12.5 11.0833 12.5 13.9C12.5 16.7167 14.8505 19 17.75 19C20.6495 19 23 16.7167 23 13.9C23 11.0833 20.6495 8.8 17.75 8.8ZM5.5 2H47.5C49.433 2 51 3.52223 51 5.4V32.6C51 34.4778 49.433 36 47.5 36H5.5C3.567 36 2 34.4778 2 32.6V5.4C2 3.52223 3.567 2 5.5 2Z" stroke="#477EEC" stroke-width="3" stroke-linejoin="bevel"/>
</svg>
