<svg width="52" height="52" viewBox="0 0 52 52" fill="none" xmlns="http://www.w3.org/2000/svg">
<path id="Vector" opacity="0.6" d="M17.4286 19.1429H20.8571M31.1429 32.8571H34.5714M34.5714 17.4286L17.4286 34.5714M23.605 2.99205L19.7341 6.86298C19.0989 7.49817 18.2373 7.85502 17.339 7.85502H11.2421C9.37146 7.85502 7.85502 9.37146 7.85502 11.2421V17.339C7.85502 18.2373 7.49817 19.0989 6.86298 19.7341L2.99205 23.605C1.66932 24.9277 1.66932 27.0723 2.99205 28.395L6.86298 32.2659C7.49817 32.9011 7.85502 33.7627 7.85502 34.661V40.7579C7.85502 42.6285 9.37146 44.145 11.2421 44.145H17.339C18.2373 44.145 19.0989 44.5018 19.7341 45.137L23.605 49.008C24.9277 50.3307 27.0723 50.3307 28.395 49.008L32.2659 45.137C32.9011 44.5018 33.7627 44.145 34.661 44.145H40.7579C42.6285 44.145 44.145 42.6285 44.145 40.7579V34.661C44.145 33.7627 44.5018 32.9011 45.137 32.2659L49.008 28.395C50.3307 27.0723 50.3307 24.9277 49.008 23.605L45.137 19.7341C44.5018 19.0989 44.145 18.2373 44.145 17.339V11.2421C44.145 9.37146 42.6285 7.85502 40.7579 7.85502H34.661C33.7627 7.85502 32.9011 7.49817 32.2659 6.86298L28.395 2.99205C27.0723 1.66932 24.9277 1.66932 23.605 2.99205Z" stroke="#477EEC" stroke-width="3" stroke-linejoin="bevel"/>
</svg>
