<svg width="50" height="50" viewBox="0 0 50 50" fill="none" xmlns="http://www.w3.org/2000/svg">
<path id="Vector" opacity="0.6" d="M31.5714 2V8.57143C31.5714 10.3861 30.1004 11.8571 28.2857 11.8571H25C23.1854 11.8571 21.7143 13.3282 21.7143 15.1429C21.7143 16.9575 20.2432 18.4286 18.4286 18.4286H15.1429V21.7143L14.1805 22.6767C12.8973 23.9598 10.8169 23.9598 9.53379 22.6767L3.64286 16.7857M21.7143 48V43.0714L18.4286 39.7857V34.8571L15.1429 31.5714V28.2857H28.2857C30.1004 28.2857 31.5714 29.7568 31.5714 31.5714V33.7619C31.5714 34.3668 32.0618 34.8571 32.6667 34.8571C33.8764 34.8571 34.8571 35.8379 34.8571 37.0476C34.8571 37.6525 35.3475 38.1429 35.9524 38.1429H44.7143M25 48C12.2975 48 2 37.7026 2 25C2 12.2975 12.2975 2 25 2C37.7026 2 48 12.2975 48 25C48 37.7026 37.7026 48 25 48Z" stroke="#477EEC" stroke-width="3" stroke-linejoin="bevel"/>
</svg>
