<svg width="50" height="44" viewBox="0 0 50 44" fill="none" xmlns="http://www.w3.org/2000/svg">
<path id="Vector" opacity="0.6" d="M6.92857 28.6667H16.7857M43.0714 28.6667H33.2143M10.2143 18.6667H39.7857M48 18.6557V38.6667C48 40.5076 46.5289 42 44.7143 42H41.4286C39.6139 42 38.1429 40.5076 38.1429 38.6667V35.3333H11.8571V38.6667C11.8571 40.5076 10.3861 42 8.57143 42H5.28571C3.47106 42 2 40.5076 2 38.6667V18.6557L8.98531 6.85255C10.7671 3.84191 13.9748 2 17.4363 2H32.5637C36.0252 2 39.2329 3.84191 41.0147 6.85255L48 18.6557Z" stroke="#477EEC" stroke-width="3" stroke-linejoin="bevel"/>
</svg>
